<?xml version="1.0" standalone="no"?><!DOCTYPE svg PUBLIC "-//W3C//DTD SVG 1.1//EN" "http://www.w3.org/Graphics/SVG/1.1/DTD/svg11.dtd"><svg class="icon" width="200px" height="200.00px" viewBox="0 0 1024 1024" version="1.1" xmlns="http://www.w3.org/2000/svg"><path d="M998.4 358.4c-89.6 0-153.6-70.4-153.6-153.6 0-25.6 6.4-44.8 12.8-70.4-57.6-57.6-128-96-211.2-115.2-25.6 51.2-76.8 83.2-134.4 83.2S403.2 70.4 377.6 19.2c-76.8 19.2-153.6 64-211.2 115.2 12.8 19.2 12.8 44.8 12.8 70.4 0 83.2-70.4 153.6-153.6 153.6C12.8 409.6 0 460.8 0 512c0 32 6.4 70.4 12.8 102.4h12.8c83.2 0 153.6 70.4 153.6 153.6 0 38.4-12.8 70.4-38.4 96 57.6 64 134.4 108.8 224 134.4C384 940.8 441.6 896 512 896s128 44.8 147.2 108.8c83.2-25.6 160-70.4 224-134.4-25.6-25.6-38.4-64-38.4-96 0-83.2 70.4-153.6 153.6-153.6h12.8c6.4-38.4 12.8-70.4 12.8-108.8 0-51.2-12.8-102.4-25.6-153.6zM512 691.2c-96 0-179.2-76.8-179.2-179.2 0-96 76.8-179.2 179.2-179.2 96 0 179.2 76.8 179.2 179.2 0 96-83.2 179.2-179.2 179.2z" /></svg>
